<svg width="320" height="481" viewBox="0 0 320 481" fill="none" xmlns="http://www.w3.org/2000/svg">
<g clip-path="url(#clip0)">
<rect width="320" height="482" transform="translate(0 -1)" fill="#EEF9FC"/>
<path d="M351.706 118.403C346.208 118.403 340.711 120.059 336.588 122.544C335.672 108.878 321.012 98.1108 302.687 98.1108C294.899 98.1108 288.027 100.181 282.53 103.494C276.574 94.7978 264.663 89 250.461 89C230.762 89 214.728 101.01 214.27 116.332C209.231 113.433 203.733 112.191 197.32 112.191C181.286 112.191 168 122.13 168 134.554C168 146.978 181.286 156.917 197.32 156.917C201.901 156.917 206.024 156.088 210.147 154.846C213.812 158.573 220.226 161.058 226.639 161.058C235.344 161.058 242.673 156.917 245.88 151.533C252.294 157.331 262.373 161.058 272.909 161.058C282.53 161.058 290.776 158.159 297.648 153.604C301.313 158.159 307.726 161.058 315.514 161.058C324.219 161.058 331.549 156.917 334.755 151.533C339.337 154.846 344.834 156.503 351.706 156.503C364.991 156.503 375.986 148.22 375.986 137.867C376.444 127.1 365.449 118.403 351.706 118.403Z" fill="url(#paint0_linear)"/>
<path d="M116.066 195.362C112.022 195.362 108.484 196.438 105.619 198.129C104.777 188.447 94.4986 180.762 81.8616 180.762C76.4699 180.762 71.5836 182.145 67.5397 184.451C63.3274 178.303 54.7342 174 45.1301 174C31.3137 174 20.0247 182.606 19.6877 193.365C16.3178 191.52 12.1055 190.291 7.55616 190.291C-3.90137 190.291 -13 197.514 -13 206.274C-13 215.034 -3.73288 222.258 7.55616 222.258C10.7575 222.258 13.7904 221.643 16.4863 220.721C19.1822 223.487 23.3945 225.178 28.1123 225.178C34.1781 225.178 39.4014 222.411 41.5918 218.416C46.3096 222.565 53.0493 225.178 60.8 225.178C67.5397 225.178 73.6055 223.18 78.1548 219.952C80.8507 223.18 85.4 225.178 90.6233 225.178C96.689 225.178 101.912 222.411 104.103 218.416C107.136 220.721 111.348 222.104 115.897 222.104C125.333 222.104 133.084 216.11 133.084 208.733C133.252 201.356 125.501 195.362 116.066 195.362Z" fill="url(#paint1_linear)"/>
</g>
<defs>
<linearGradient id="paint0_linear" x1="272.53" y1="90.7857" x2="272.53" y2="159.293" gradientUnits="userSpaceOnUse">
<stop offset="0.0940014" stop-color="white"/>
<stop offset="1" stop-color="white" stop-opacity="0"/>
</linearGradient>
<linearGradient id="paint1_linear" x1="67.5706" y1="175.709" x2="67.5706" y2="224.411" gradientUnits="userSpaceOnUse">
<stop stop-color="white"/>
<stop offset="1" stop-color="white" stop-opacity="0"/>
</linearGradient>
<clipPath id="clip0">
<rect width="320" height="482" fill="white" transform="translate(0 -1)"/>
</clipPath>
</defs>
</svg>
