<?xml version="1.0" standalone="no"?>
<!DOCTYPE svg PUBLIC "-//W3C//DTD SVG 20010904//EN"
 "http://www.w3.org/TR/2001/REC-SVG-20010904/DTD/svg10.dtd">
<svg version="1.0" xmlns="http://www.w3.org/2000/svg"
 width="560.000000pt" height="560.000000pt" viewBox="0 0 560.000000 560.000000"
 preserveAspectRatio="xMidYMid meet">
<metadata>
Created by potrace 1.11, written by Peter Selinger 2001-2013
</metadata>
<g transform="translate(0.000000,560.000000) scale(0.100000,-0.100000)"
fill="#000000" stroke="none">
<path d="M2655 5403 c-188 -12 -478 -74 -677 -142 -397 -138 -717 -339 -1023
-646 -249 -248 -428 -505 -560 -803 l-45 -102 0 -300 0 -300 2460 0 2460 0 0
300 0 300 -2125 0 c-1169 0 -2125 3 -2125 8 1 13 93 158 155 244 77 107 326
356 433 433 280 203 552 320 902 387 114 22 124 22 1438 25 l1322 4 0 299 0
300 -1282 -2 c-706 -1 -1305 -3 -1333 -5z"/>
<path d="M350 2210 l0 -300 2125 0 c1169 0 2125 -3 2125 -7 -1 -14 -93 -159
-155 -245 -77 -107 -326 -356 -433 -433 -280 -203 -552 -320 -902 -387 -114
-22 -124 -22 -1437 -25 l-1323 -4 0 -300 0 -300 1338 4 c1325 3 1338 3 1467
25 438 75 782 210 1125 443 407 277 748 684 946 1129 l44 100 0 300 0 300
-2460 0 -2460 0 0 -300z"/>
</g>
</svg>
