<?xml version="1.0" encoding="iso-8859-1"?>
<!-- Generator: Adobe Illustrator 16.0.0, SVG Export Plug-In . SVG Version: 6.00 Build 0)  -->
<!DOCTYPE svg PUBLIC "-//W3C//DTD SVG 1.1//EN" "http://www.w3.org/Graphics/SVG/1.1/DTD/svg11.dtd">
<svg version="1.1" id="Capa_1" xmlns="http://www.w3.org/2000/svg" xmlns:xlink="http://www.w3.org/1999/xlink" x="0px" y="0px"
	 width="314.014px" height="314.014px" viewBox="0 0 314.014 314.014" style="enable-background:new 0 0 314.014 314.014;"
	 xml:space="preserve">
<g>
	<g id="_x36_8._Message">
		<g>
			<path d="M157.007,8.054C70.292,8.054,0,64.286,0,133.653c0,47.31,32.734,88.478,81.042,109.906h-2.539v47.1
				c0,17.352,8.736,20.401,19.514,6.809l31.905-40.195c8.816,1.227,17.827,1.992,27.084,1.992
				c86.717,0,157.007-56.24,157.007-125.611C314.014,64.286,243.724,8.054,157.007,8.054z M157.007,227.857
				c-69.373,0-125.605-42.174-125.605-94.205c0-52.024,56.232-94.199,125.605-94.199c69.364,0,125.604,42.174,125.604,94.199
				C282.611,185.684,226.371,227.857,157.007,227.857z"/>
		</g>
	</g>
</g>
<g>
</g>
<g>
</g>
<g>
</g>
<g>
</g>
<g>
</g>
<g>
</g>
<g>
</g>
<g>
</g>
<g>
</g>
<g>
</g>
<g>
</g>
<g>
</g>
<g>
</g>
<g>
</g>
<g>
</g>
</svg>
