<svg width="378" height="309" viewBox="0 0 378 309" fill="none" xmlns="http://www.w3.org/2000/svg">
<g clip-path="url(#clip0_176_418)">
<path d="M345.1 308.636V271.956C345.1 271.956 359.395 297.961 345.1 308.636Z" fill="#F1F1F1"/>
<path d="M345.983 308.63L318.962 283.824C318.962 283.824 347.786 290.88 345.983 308.63Z" fill="#F1F1F1"/>
<path d="M250.68 161.845L107.293 245.649C106.791 245.942 106.194 246.024 105.632 245.876C105.07 245.729 104.59 245.365 104.296 244.863L12.089 87.1004C11.7965 86.5986 11.7149 86.0012 11.8623 85.4393C12.0096 84.8774 12.3739 84.3969 12.8751 84.1032L156.262 0.298908C156.763 0.00636248 157.361 -0.0751736 157.923 0.0721869C158.485 0.219547 158.965 0.583771 159.259 1.08495L251.466 158.848C251.758 159.35 251.84 159.947 251.692 160.509C251.545 161.071 251.181 161.551 250.68 161.845Z" fill="white"/>
<path d="M250.68 161.845L107.293 245.649C106.791 245.942 106.194 246.024 105.632 245.876C105.07 245.729 104.59 245.365 104.296 244.863L12.089 87.1004C11.7965 86.5986 11.7149 86.0012 11.8623 85.4393C12.0096 84.8774 12.3739 84.3969 12.8751 84.1032L156.262 0.298908C156.763 0.00636248 157.361 -0.0751736 157.923 0.0721869C158.485 0.219547 158.965 0.583771 159.259 1.08495L251.466 158.848C251.758 159.35 251.84 159.947 251.692 160.509C251.545 161.071 251.181 161.551 250.68 161.845ZM13.3173 84.8598C13.0166 85.036 12.798 85.3244 12.7096 85.6615C12.6212 85.9986 12.6701 86.3571 12.8457 86.6582L105.053 244.421C105.229 244.722 105.517 244.94 105.854 245.029C106.191 245.117 106.55 245.068 106.851 244.893L250.237 161.089C250.538 160.912 250.757 160.624 250.845 160.287C250.934 159.95 250.885 159.591 250.709 159.29L158.502 1.52717C158.326 1.22644 158.038 1.0079 157.701 0.919479C157.363 0.831061 157.005 0.879992 156.704 1.05554L13.3173 84.8598Z" fill="#3F3D56"/>
<path d="M105.486 100.571L69.9232 121.356C69.4214 121.649 68.824 121.73 68.2621 121.583C67.7002 121.435 67.2197 121.071 66.926 120.57L46.1408 85.0071C45.8482 84.5053 45.7667 83.9079 45.914 83.346C46.0614 82.7841 46.4256 82.3036 46.9268 82.0099L82.4897 61.2246C82.9915 60.9321 83.5889 60.8505 84.1508 60.9979C84.7127 61.1453 85.1932 61.5095 85.4869 62.0107L106.272 97.5736C106.565 98.0754 106.646 98.6728 106.499 99.2347C106.352 99.7966 105.987 100.277 105.486 100.571ZM47.3691 82.7665C47.0683 82.9427 46.8498 83.231 46.7614 83.5682C46.673 83.9053 46.7219 84.2638 46.8974 84.5649L67.6827 120.128C67.8589 120.428 68.1472 120.647 68.4843 120.735C68.8215 120.824 69.1799 120.775 69.481 120.599L105.044 99.8141C105.345 99.6379 105.563 99.3496 105.652 99.0125C105.74 98.6754 105.691 98.3169 105.516 98.0158L84.7303 62.4529C84.5541 62.1522 84.2658 61.9336 83.9286 61.8452C83.5915 61.7568 83.233 61.8057 82.9319 61.9813L47.3691 82.7665Z" fill="#F2F2F2"/>
<path d="M97.8148 110.892L62.2519 131.677C61.8002 131.94 61.2625 132.014 60.7568 131.881C60.2511 131.749 59.8187 131.421 59.5544 130.97L38.7691 95.4067C38.5058 94.9551 38.4324 94.4174 38.5651 93.9117C38.6977 93.406 39.0255 92.9735 39.4766 92.7092L75.0395 71.924C75.4911 71.6607 76.0288 71.5873 76.5345 71.7199C77.0402 71.8525 77.4726 72.1803 77.737 72.6314L98.5222 108.194C98.7855 108.646 98.8589 109.184 98.7263 109.689C98.5936 110.195 98.2658 110.628 97.8148 110.892Z" fill="#3C6D79"/>
<path d="M183.652 84.071L72.4235 149.08C71.972 149.344 71.4341 149.418 70.9282 149.285C70.4224 149.152 69.9899 148.824 69.726 148.373C69.4621 147.921 69.3884 147.383 69.5211 146.877C69.6537 146.372 69.9819 145.939 70.4334 145.675L181.662 80.6661C181.886 80.5354 182.133 80.45 182.389 80.4149C182.646 80.3797 182.907 80.3954 183.157 80.4611C183.408 80.5268 183.643 80.6412 183.849 80.7977C184.055 80.9543 184.229 81.1499 184.36 81.3735C184.49 81.5971 184.576 81.8442 184.611 82.1008C184.646 82.3573 184.63 82.6183 184.564 82.8688C184.499 83.1193 184.384 83.3544 184.228 83.5606C184.071 83.7669 183.876 83.9404 183.652 84.071Z" fill="#CCCCCC"/>
<path d="M163.645 111.499L79.278 160.808C79.0544 160.939 78.8073 161.024 78.5508 161.06C78.2942 161.095 78.0332 161.079 77.7827 161.013C77.2769 160.881 76.8444 160.553 76.5805 160.101C76.3166 159.649 76.2429 159.112 76.3755 158.606C76.5082 158.1 76.8364 157.667 77.2879 157.403L161.655 108.094C161.879 107.963 162.126 107.878 162.382 107.843C162.639 107.807 162.9 107.823 163.151 107.889C163.401 107.955 163.636 108.069 163.842 108.225C164.049 108.382 164.222 108.578 164.353 108.801C164.483 109.025 164.569 109.272 164.604 109.528C164.639 109.785 164.623 110.046 164.558 110.297C164.492 110.547 164.378 110.782 164.221 110.988C164.065 111.195 163.869 111.368 163.645 111.499V111.499Z" fill="#CCCCCC"/>
<path d="M158.066 41.1627L108.883 69.9082C108.431 70.1721 107.894 70.2459 107.388 70.1132C106.882 69.9805 106.449 69.6523 106.185 69.2008C105.922 68.7493 105.848 68.2114 105.981 67.7055C106.113 67.1996 106.441 66.7672 106.893 66.5033L156.076 37.7577C156.527 37.4938 157.065 37.4201 157.571 37.5528C157.821 37.6185 158.056 37.7329 158.263 37.8894C158.469 38.046 158.642 38.2416 158.773 38.4652C158.904 38.6888 158.989 38.9359 159.024 39.1924C159.059 39.449 159.044 39.71 158.978 39.9605C158.912 40.2109 158.798 40.446 158.641 40.6523C158.485 40.8586 158.289 41.032 158.066 41.1627Z" fill="#CCCCCC"/>
<path d="M152.647 60.0648L115.738 81.6364C115.515 81.7671 115.268 81.8525 115.011 81.8876C114.755 81.9228 114.494 81.9071 114.243 81.8414C113.993 81.7757 113.758 81.6613 113.551 81.5048C113.345 81.3482 113.172 81.1526 113.041 80.929C112.91 80.7054 112.825 80.4583 112.79 80.2017C112.755 79.9452 112.77 79.6842 112.836 79.4337C112.902 79.1832 113.016 78.9481 113.173 78.7418C113.329 78.5356 113.525 78.3621 113.748 78.2315L150.657 56.6598C151.108 56.3959 151.646 56.3222 152.152 56.4549C152.658 56.5876 153.09 56.9158 153.354 57.3673C153.618 57.8188 153.692 58.3567 153.559 58.8626C153.427 59.3684 153.098 59.8009 152.647 60.0648Z" fill="#CCCCCC"/>
<path d="M197.362 107.527L86.133 172.537C85.6815 172.8 85.1436 172.874 84.6377 172.741C84.1318 172.609 83.6994 172.281 83.4355 171.829C83.1716 171.378 83.0979 170.84 83.2305 170.334C83.3632 169.828 83.6914 169.395 84.1429 169.132L195.372 104.122C195.823 103.859 196.361 103.785 196.867 103.917C197.373 104.05 197.805 104.378 198.069 104.83C198.333 105.281 198.407 105.819 198.274 106.325C198.141 106.831 197.813 107.263 197.362 107.527V107.527Z" fill="#CCCCCC"/>
<path d="M177.355 134.955L92.9875 184.265C92.7639 184.395 92.5168 184.481 92.2602 184.516C92.0037 184.551 91.7427 184.535 91.4922 184.47C91.2417 184.404 91.0066 184.29 90.8003 184.133C90.5941 183.977 90.4206 183.781 90.29 183.557C90.1593 183.334 90.0739 183.087 90.0388 182.83C90.0036 182.574 90.0193 182.313 90.085 182.062C90.1507 181.812 90.2651 181.576 90.4216 181.37C90.5782 181.164 90.7738 180.99 90.9974 180.86L175.365 131.55C175.588 131.419 175.835 131.334 176.092 131.299C176.348 131.264 176.609 131.28 176.86 131.345C177.11 131.411 177.346 131.525 177.552 131.682C177.758 131.838 177.931 132.034 178.062 132.258C178.193 132.481 178.278 132.728 178.313 132.985C178.349 133.241 178.333 133.502 178.267 133.753C178.201 134.003 178.087 134.238 177.931 134.445C177.774 134.651 177.578 134.824 177.355 134.955V134.955Z" fill="#CCCCCC"/>
<path d="M211.071 130.984L99.842 195.993C99.6184 196.124 99.3713 196.209 99.1147 196.244C98.8582 196.279 98.5972 196.264 98.3467 196.198C98.0962 196.132 97.8611 196.018 97.6548 195.861C97.4486 195.705 97.2751 195.509 97.1445 195.286C97.0138 195.062 96.9284 194.815 96.8933 194.558C96.8581 194.302 96.8738 194.041 96.9395 193.79C97.0052 193.54 97.1196 193.305 97.2761 193.098C97.4327 192.892 97.6283 192.719 97.8519 192.588L209.081 127.579C209.304 127.448 209.551 127.363 209.808 127.328C210.064 127.292 210.325 127.308 210.576 127.374C210.826 127.44 211.061 127.554 211.268 127.711C211.474 127.867 211.647 128.063 211.778 128.286C211.909 128.51 211.994 128.757 212.029 129.014C212.064 129.27 212.049 129.531 211.983 129.782C211.917 130.032 211.803 130.267 211.646 130.473C211.49 130.68 211.294 130.853 211.071 130.984Z" fill="#CCCCCC"/>
<path d="M217.926 142.712L106.697 207.721C106.473 207.852 106.226 207.937 105.97 207.972C105.713 208.008 105.452 207.992 105.202 207.926C104.951 207.86 104.716 207.746 104.51 207.59C104.304 207.433 104.13 207.237 103.999 207.014C103.869 206.79 103.783 206.543 103.748 206.287C103.713 206.03 103.729 205.769 103.794 205.518C103.86 205.268 103.975 205.033 104.131 204.827C104.288 204.62 104.483 204.447 104.707 204.316L215.935 139.307C216.159 139.176 216.406 139.091 216.663 139.056C216.919 139.021 217.18 139.036 217.431 139.102C217.681 139.168 217.916 139.282 218.123 139.439C218.329 139.595 218.502 139.791 218.633 140.014C218.764 140.238 218.849 140.485 218.884 140.742C218.919 140.998 218.904 141.259 218.838 141.51C218.772 141.76 218.658 141.995 218.501 142.202C218.345 142.408 218.149 142.581 217.926 142.712Z" fill="#CCCCCC"/>
<path d="M181.957 188.368C183.502 186.549 184.893 184.603 186.115 182.552C187.211 180.702 188.286 178.724 188.528 176.554C188.652 175.63 188.555 174.69 188.247 173.81C187.939 172.931 187.427 172.136 186.754 171.491C186.103 170.891 185.279 170.514 184.399 170.414C183.52 170.314 182.632 170.497 181.863 170.935C181.085 171.382 180.442 172.03 180.003 172.812C179.564 173.594 179.344 174.48 179.367 175.377C179.43 176.364 179.715 177.324 180.201 178.186C180.687 179.048 181.362 179.788 182.174 180.353C185.462 182.735 190.596 182.61 194.1 180.798C198.047 178.756 200.086 173.414 196.985 169.758C196.34 168.997 195.267 169.847 195.429 170.668C195.634 171.776 196.254 172.764 197.163 173.43C198.072 174.096 199.201 174.39 200.319 174.252C201.438 174.114 202.461 173.554 203.181 172.686C203.9 171.819 204.261 170.71 204.19 169.585L202.796 170.4C204.505 171.157 206.383 171.45 208.242 171.251C210.1 171.051 211.873 170.366 213.383 169.264C214.13 168.721 214.796 168.077 215.364 167.349C216.046 166.459 217.193 165.884 218.121 165.243L224.809 160.621C225.793 159.942 224.857 158.322 223.865 159.007L217.808 163.192C216.799 163.89 215.783 164.579 214.779 165.285C214.062 165.79 213.621 166.605 212.969 167.205C211.733 168.316 210.207 169.053 208.568 169.33C206.93 169.608 205.246 169.413 203.714 168.77C203.571 168.693 203.411 168.655 203.249 168.657C203.087 168.66 202.928 168.705 202.788 168.787C202.649 168.868 202.532 168.985 202.45 169.124C202.368 169.264 202.323 169.423 202.32 169.585C202.394 170.256 202.199 170.929 201.779 171.458C201.359 171.986 200.747 172.327 200.077 172.407C199.406 172.486 198.731 172.297 198.199 171.882C197.667 171.466 197.321 170.857 197.236 170.187L195.68 171.097C197.68 173.456 196.348 177.074 194.043 178.656C191.466 180.426 187.658 180.734 184.753 179.633C184.04 179.388 183.386 178.999 182.831 178.489C182.275 177.98 181.831 177.361 181.526 176.672C181.242 176.05 181.162 175.354 181.295 174.684C181.427 174.013 181.768 173.401 182.267 172.934C182.699 172.506 183.281 172.264 183.889 172.257C184.497 172.251 185.084 172.481 185.526 172.899C186.007 173.39 186.36 173.992 186.553 174.651C186.747 175.311 186.776 176.008 186.636 176.681C186.337 178.554 185.301 180.282 184.338 181.882C183.238 183.705 181.994 185.438 180.618 187.063C179.846 187.975 181.177 189.291 181.957 188.368L181.957 188.368Z" fill="#3C6D79"/>
<path d="M198.557 176.07C198.718 176.236 198.866 176.414 198.999 176.603L219.712 176.097L222.128 171.681L229.268 174.457L225.75 182.689C225.466 183.354 224.974 183.909 224.347 184.271C223.721 184.632 222.994 184.781 222.276 184.694L198.875 181.867C198.323 182.566 197.571 183.08 196.72 183.341C195.869 183.602 194.958 183.598 194.109 183.329C193.26 183.06 192.513 182.539 191.968 181.835C191.422 181.131 191.104 180.278 191.055 179.389C191.006 178.5 191.229 177.617 191.695 176.857C192.16 176.098 192.845 175.498 193.66 175.138C194.474 174.778 195.379 174.674 196.254 174.841C197.129 175.007 197.932 175.436 198.557 176.07Z" fill="#FFB7B7"/>
<path d="M266.077 301.858H259.267L256.027 275.589L266.078 275.59L266.077 301.858Z" fill="#FFB7B7"/>
<path d="M267.813 308.46L245.854 308.459V308.181C245.854 305.915 246.755 303.741 248.358 302.138C249.96 300.535 252.134 299.634 254.401 299.634H254.402L267.814 299.635L267.813 308.46Z" fill="#2F2E41"/>
<path d="M204.236 301.707L197.973 299.031L205.313 273.602L214.556 277.551L204.236 301.707Z" fill="#FFB7B7"/>
<path d="M203.24 308.46L183.046 299.833L183.155 299.577C184.046 297.493 185.728 295.848 187.832 295.003C189.936 294.159 192.288 294.185 194.373 295.075L194.374 295.075L206.707 300.344L203.24 308.46Z" fill="#2F2E41"/>
<path d="M232.973 181.761L232.48 189.741L246.876 191.282L261.939 192.894L257.505 180.776L232.973 181.761Z" fill="#FFB7B7"/>
<path d="M232.028 189.844L226.436 150.858L236.129 147.681L238.976 143.777L252.83 144.597L254.864 149.153L262.251 152.644L261.116 173.728L261.944 191.365L232.028 189.844Z" fill="#2F2E41"/>
<path d="M228.508 179.397L218.648 175.452L218.69 175.276C218.733 175.1 222.929 157.564 223.486 154.746C224.067 151.81 226.187 150.998 226.277 150.965L226.343 150.941L230.245 152.129L231.959 165.593L228.508 179.397Z" fill="#2F2E41"/>
<path d="M209.308 297.09L196.184 294.398L217.16 236.516L224.339 216.774C224.339 216.774 228.893 200.944 230.95 194.818L232.191 186.599L261.581 189.852C261.581 189.852 269.789 201.907 267.296 221.555L268.424 295.408L255.299 296.081L244.306 221.597L225.012 262.428C225.012 262.428 218.931 279.853 214.58 283.629L209.308 297.09Z" fill="#2F2E41"/>
<path d="M249.796 192.593C250.027 192.588 250.258 192.6 250.487 192.631L264.198 177.098L262.603 172.324L269.493 168.976L273.138 177.153C273.432 177.813 273.505 178.551 273.344 179.257C273.183 179.962 272.798 180.596 272.246 181.063L254.262 196.301C254.399 197.181 254.265 198.082 253.878 198.884C253.491 199.686 252.869 200.351 252.094 200.79C251.32 201.23 250.43 201.423 249.543 201.345C248.656 201.266 247.813 200.919 247.128 200.351C246.443 199.782 245.947 199.018 245.707 198.16C245.466 197.303 245.493 196.392 245.782 195.55C246.072 194.708 246.611 193.974 247.328 193.446C248.045 192.918 248.906 192.62 249.796 192.593Z" fill="#FFB7B7"/>
<path d="M263.103 178.61L257.384 165.156L259.615 155.785L262.018 152.749C262.194 152.673 262.384 152.635 262.575 152.637C262.767 152.639 262.956 152.681 263.13 152.759C264.017 153.116 264.772 154.209 265.374 156.009L270.734 171.277L263.103 178.61Z" fill="#2F2E41"/>
<path d="M233.43 138.792V128.649C233.43 125.045 234.862 121.588 237.41 119.039C239.959 116.49 243.416 115.058 247.021 115.058C250.625 115.058 254.082 116.49 256.631 119.039C259.18 121.588 260.612 125.045 260.612 128.649V138.792C260.611 139.276 260.419 139.74 260.077 140.082C259.734 140.425 259.27 140.617 258.786 140.618H235.255C234.771 140.617 234.307 140.425 233.965 140.082C233.623 139.74 233.43 139.276 233.43 138.792Z" fill="#2F2E41"/>
<path d="M244.228 140.382C249.731 140.382 254.193 135.92 254.193 130.417C254.193 124.914 249.731 120.453 244.228 120.453C238.725 120.453 234.264 124.914 234.264 130.417C234.264 135.92 238.725 140.382 244.228 140.382Z" fill="#FFB7B7"/>
<path d="M230.215 129.461C230.218 126.61 231.352 123.878 233.367 121.862C235.383 119.846 238.116 118.713 240.966 118.71H242.995C245.845 118.713 248.578 119.846 250.593 121.862C252.609 123.878 253.743 126.61 253.746 129.461V129.664H249.459L247.997 125.569L247.704 129.664H245.489L244.751 127.598L244.603 129.664H230.215L230.215 129.461Z" fill="#2F2E41"/>
<path d="M243.248 141.758C243.046 141.486 242.926 141.162 242.901 140.824C242.876 140.486 242.946 140.148 243.105 139.849C245.254 135.76 248.264 128.205 244.269 123.545L243.982 123.211H255.58V140.623L245.044 142.482C244.938 142.501 244.829 142.511 244.721 142.511C244.433 142.511 244.15 142.443 243.894 142.312C243.638 142.181 243.416 141.991 243.248 141.758Z" fill="#2F2E41"/>
<path d="M107.953 296.12L114.108 298.32L125.521 275.627L116.437 272.381L107.953 296.12Z" fill="#9F616A"/>
<path d="M104.251 301.526L107.101 293.55L119.222 297.882C121.269 298.616 122.942 300.132 123.872 302.098C124.803 304.063 124.916 306.318 124.186 308.367L124.097 308.618L104.251 301.526Z" fill="#2F2E41"/>
<path d="M147.975 302.208L154.511 302.208L157.621 276.997L147.974 276.998L147.975 302.208Z" fill="#9F616A"/>
<path d="M146.308 300.074L159.18 300.074H159.18C160.258 300.074 161.324 300.286 162.319 300.698C163.315 301.11 164.219 301.714 164.981 302.476C165.742 303.238 166.347 304.142 166.759 305.137C167.171 306.132 167.383 307.199 167.383 308.276V308.543L146.308 308.544L146.308 300.074Z" fill="#2F2E41"/>
<path d="M133.081 141.145L135.923 135.529C135.923 135.529 146.512 138.182 147.475 144.319L133.081 141.145Z" fill="#F1F1F1"/>
<path d="M121.352 205.368L129.082 248.505L108.556 284.804L120.818 289.602L141.61 254.416L144.276 244.819L145.875 294.933L156.934 294.598L162.004 247.803L153.872 204.302L121.352 205.368Z" fill="#2F2E41"/>
<path d="M136.025 215.566C124.669 215.566 117.459 213.394 117.297 213.359L117.036 213.304L122.951 185.879L123.217 160.583C123.217 149.863 130.272 141.96 131.251 141.231C131.416 140.58 131.721 139.973 132.145 139.452C132.568 138.932 133.101 138.51 133.704 138.216C136.058 137.148 138.933 138.43 139.054 138.485L147.686 141.721L147.727 141.841C147.831 142.147 159.2 179.471 159.2 179.471C159.2 179.471 158.512 212.082 158.272 213.15C158.272 213.15 142.335 215.566 136.025 215.566Z" fill="#3F3D56"/>
<path d="M144.751 133.76C151.194 133.76 156.417 128.537 156.417 122.094C156.417 115.651 151.194 110.428 144.751 110.428C138.308 110.428 133.084 115.651 133.084 122.094C133.084 128.537 138.308 133.76 144.751 133.76Z" fill="#9F616A"/>
<path opacity="0.2" d="M131.744 162.652L152.154 191.129L155.168 177.83L131.744 162.652Z" fill="black"/>
<path d="M195.734 182.028C195.16 182.482 194.493 182.805 193.781 182.973C193.069 183.142 192.328 183.152 191.612 183.004C190.895 182.855 190.22 182.551 189.633 182.113C189.047 181.676 188.563 181.114 188.217 180.47L170.649 183.281L174.455 174.856L190.554 173.477C191.676 172.968 192.946 172.887 194.123 173.251C195.301 173.615 196.304 174.398 196.942 175.452C197.581 176.506 197.81 177.758 197.588 178.97C197.365 180.182 196.705 181.27 195.734 182.028H195.734Z" fill="#9F616A"/>
<path d="M175.359 174.376L181.672 173.757L183.421 182.563L175.478 182.703L175.359 174.376Z" fill="#F1F1F1"/>
<path d="M180.534 185.631L149.62 182.878L134.01 158.053L133.962 157.833C133.519 155.805 133.829 153.685 134.834 151.869C135.84 150.053 137.472 148.665 139.426 147.965C141.38 147.264 143.522 147.298 145.452 148.061C147.383 148.824 148.97 150.263 149.917 152.111L159.08 169.985L177.574 172.78L180.534 185.631Z" fill="#3F3D56"/>
<path d="M134.814 132.223L144.497 132.571C145.087 132.592 146.689 126.222 146.899 124.9C147.065 124.04 147.538 123.269 148.23 122.733C148.922 122.196 149.787 121.929 150.661 121.983C151.386 122.051 153.214 120.697 155.1 119.094C158.681 116.049 158.494 110.332 154.561 107.759C154.453 107.689 154.348 107.625 154.244 107.567C151.763 106.178 148.86 105.711 146.016 105.676C143.439 105.644 140.788 105.968 138.517 107.188C134.446 109.375 132.279 114.155 132.089 118.773C131.898 123.391 133.379 127.906 135.059 132.212" fill="#2F2E41"/>
<path d="M377.551 309.001H0.507051C0.372573 309.001 0.243602 308.948 0.148511 308.853C0.0534209 308.757 0 308.628 0 308.494C0 308.36 0.0534209 308.231 0.148511 308.135C0.243602 308.04 0.372573 307.987 0.507051 307.987H377.753C377.887 307.987 378.016 308.04 378.111 308.135C378.207 308.231 378.26 308.36 378.26 308.494C378.26 308.774 377.831 309.001 377.551 309.001Z" fill="#CBCBCB"/>
</g>
<defs>
<clipPath id="clip0_176_418">
<rect width="378" height="308.757" fill="white"/>
</clipPath>
</defs>
</svg>
