<?xml version="1.0" encoding="UTF-8"?>
<!DOCTYPE svg PUBLIC "-//W3C//DTD SVG 1.1//EN" "http://www.w3.org/Graphics/SVG/1.1/DTD/svg11.dtd">
<!-- Creator: CorelDRAW 2019 (64-Bit) -->
<svg xmlns="http://www.w3.org/2000/svg" xml:space="preserve" width="500px" height="500px" version="1.1" style="shape-rendering:geometricPrecision; text-rendering:geometricPrecision; image-rendering:optimizeQuality; fill-rule:evenodd; clip-rule:evenodd"
viewBox="0 0 500 500"
 xmlns:xlink="http://www.w3.org/1999/xlink">
 <defs>
  <style type="text/css">
   <![CDATA[
    .fil0 {fill:#303030}
    .fil1 {fill:#44D4E2}
   ]]>
  </style>
 </defs>
 <g id="Слой_x0020_1">
  <metadata id="CorelCorpID_0Corel-Layer"/>
  <g id="_1736701504848">
   <path class="fil0" d="M477.63 276.93l-450.65 0 0 54.96 389.28 0c-26.35,49.8 -77.67,90.3 -145.5,99.06 -32.68,4.22 -84.25,1.69 -121.04,1.69 -40.92,0 -81.83,0 -122.74,0l0 54.96c54.95,0 109.91,0 164.87,0 66.45,0 99.29,1.87 148.13,-17.66 56.56,-22.61 102.43,-65.5 128.8,-118.51 12.8,-25.74 8.85,-38.34 8.85,-74.5z"/>
   <path class="fil0" d="M26.98 221.97l450.65 0 0 -54.96 -389.28 0c26.35,-49.8 77.67,-90.3 145.5,-99.06 32.68,-4.22 84.25,-1.7 121.04,-1.7 40.92,0 81.83,0 122.74,0l0 -54.95c-54.95,0 -109.91,0 -164.87,0 -66.45,0 -99.29,-1.88 -148.13,17.65 -37.1,14.84 -72.49,40.47 -95.95,68.93 -13.04,15.83 -23.26,30.3 -32.85,49.59 -12.8,25.73 -8.85,38.34 -8.85,74.5z"/>
   <polygon class="fil1" points="26.98,276.93 477.63,276.93 477.63,221.97 26.98,221.97 "/>
  </g>
 </g>
</svg>
