<svg width="512" height="512" xmlns="http://www.w3.org/2000/svg">

 <g>
  <title>background</title>
  <rect fill="none" id="canvas_background" height="402" width="582" y="-1" x="-1"/>
 </g>
 <g>
  <title>Layer 1</title>
  <path fill="#ffffff" id="svg_2" d="m331.269,229.846c-5.988,-61.294 -57.897,-109.411 -120.789,-109.411c-52.108,0 -98.228,33.543 -114.799,82.259c-39.333,5.788 -69.68,39.53 -69.68,80.46c0,44.922 36.537,81.456 81.658,81.456l208.836,0c37.734,0 68.48,-30.547 68.48,-68.28c0.001,-32.545 -23.158,-59.894 -53.706,-66.484zm-14.774,104.217l-208.836,0c-28.15,0 -51.11,-22.76 -51.11,-50.911c0,-28.152 22.96,-50.912 51.11,-50.912c13.576,0 26.354,5.391 35.938,14.974c14.395,14.395 36.149,-7.374 21.763,-21.763c-10.583,-10.381 -23.56,-17.569 -37.535,-21.163c14.375,-31.943 46.72,-53.307 82.656,-53.307c50.113,0 90.841,40.729 90.841,90.641c0,9.784 -1.597,19.366 -4.591,28.551c-6.448,19.843 23.17,28.077 28.949,9.584c1.997,-5.99 3.593,-12.179 4.59,-18.369c13.978,5.393 24.16,18.968 24.16,34.94c0,20.765 -16.972,37.735 -37.935,37.735l0,0zm169.504,-37.733c0,31.746 -9.184,62.291 -26.754,88.446c-2.994,4.392 -7.786,6.788 -12.776,6.788c-11.765,0 -19.561,-13.574 -12.578,-23.76c13.975,-21.162 21.563,-45.919 21.563,-71.475c0,-25.557 -7.588,-50.312 -21.563,-71.276c-11.289,-16.463 13.961,-34.063 25.354,-16.97c17.572,25.956 26.754,56.504 26.754,88.247l0,0zm-51.11,0c0,22.762 -6.588,44.72 -19.365,63.689c-2.996,4.391 -7.787,6.588 -12.778,6.588c-12.402,0 -19.484,-13.685 -12.578,-23.759c9.386,-13.775 14.175,-29.749 14.175,-46.519c0,-16.571 -4.789,-32.742 -14.175,-46.519c-11.363,-16.576 13.706,-33.96 25.356,-16.971c12.777,18.768 19.365,40.731 19.365,63.491l0,0z"/>
 </g>
</svg>