<svg width="1920" height="560" viewBox="0 0 1920 560" fill="none" xmlns="http://www.w3.org/2000/svg">
<rect width="1920" height="560" transform="matrix(1 0 0 -1 0 560)" fill="#F7F6FD"/>
<mask id="mask0" mask-type="alpha" maskUnits="userSpaceOnUse" x="0" y="0" width="1920" height="560">
<rect width="1920" height="560" transform="matrix(1 0 0 -1 0 560)" fill="#F7F6FD"/>
</mask>
<g mask="url(#mask0)">
<g opacity="0.1">
<path d="M1316.18 394.16C1313.45 394.16 1310.72 393.706 1308.21 392.799C1296.83 388.942 1292.05 376.463 1289.77 365.8C1283.63 336.079 1296.15 303.182 1310.94 277.545C1334.16 237.388 1369.45 205.398 1408.37 179.307C1422.26 184.979 1434.78 193.827 1441.15 207.667C1449.12 224.909 1445.48 245.328 1441.15 263.025C1437.28 278.906 1431.14 294.107 1423.17 308.4C1407.23 337.214 1384.24 361.716 1356.24 378.959C1345.54 385.539 1330.98 394.16 1317.32 394.16C1316.86 394.16 1316.64 394.16 1316.18 394.16ZM540.631 78.8005C575.459 20.9468 624.628 -28.2855 681.764 -64.1321C737.534 -99.2981 804.231 -124.935 870.928 -127.658C896.423 -128.792 930.34 -126.296 947.185 -104.063C969.493 -74.5685 945.136 -33.5037 926.926 -8.5472C880.716 54.5247 812.654 99.4464 746.412 138.923C665.374 187.021 579.556 225.817 492.6 262.117C480.535 199.499 509.445 130.755 540.631 78.8005ZM828.133 -161.689C760.753 -150.345 695.877 -122.44 640.335 -82.9629C583.881 -43.0325 536.078 8.69548 501.705 68.8179C466.65 129.848 440.017 206.079 455.951 277.091C402.002 299.098 347.825 320.425 294.103 342.886C216.935 375.102 140.45 409.361 67.6073 450.199C44.8439 462.904 22.0805 476.289 0 491.036L0 538C3.41451 535.504 7.05665 533.009 10.4712 530.513C76.0298 484.911 149.1 449.291 221.488 416.394C302.981 379.413 386.295 346.969 469.154 313.392C480.08 334.037 496.242 351.734 516.046 364.893C541.541 381.909 572.272 388.942 602.547 391.211C671.748 396.202 740.038 372.153 803.548 347.423C956.063 287.755 1101.75 197.684 1265.87 174.089C1295.69 169.778 1327.33 166.375 1357.61 168.644C1310.72 205.852 1269.97 253.269 1254.72 311.803C1246.3 344.247 1245.61 382.816 1267.92 410.041C1295.69 444.3 1340.54 433.637 1373.77 414.125C1435.69 377.598 1480.53 308.854 1484.4 236.707C1486.22 203.81 1471.88 174.77 1446.16 156.166C1454.58 151.401 1463 146.864 1471.2 142.78C1543.36 105.799 1623.26 82.8843 1704.07 75.8511C1773.04 69.9523 1863.09 68.4902 1920 115C1920 115 1920 75.8511 1920 68.8179C1912.01 61.7848 1878.89 50.214 1859.09 45.2227C1820.39 35.2401 1779.42 33.4251 1739.58 34.7864C1697.24 35.9207 1655.13 41.5927 1613.7 50.6678C1539.72 67.0029 1467.33 96.2701 1403.14 136.881C1381.74 131.209 1359.2 129.394 1337.35 129.621C1253.58 130.529 1171.63 151.628 1093.55 180.895C1014.56 210.389 938.763 247.824 861.595 281.402C822.669 298.418 783.289 314.526 743.225 328.139C712.267 338.575 680.853 347.877 648.302 351.053C595.491 356.498 532.891 347.196 505.348 298.418C561.346 275.276 616.661 251 671.065 224.002C743.453 187.928 814.475 147.317 877.529 96.7238C907.577 72.6749 935.121 45.9033 957.884 15.048C980.647 -15.8073 1000.45 -53.242 993.623 -92.7187C984.062 -146.715 935.348 -163.731 886.407 -165.546C883.22 -166 880.488 -166 877.529 -166C860.229 -166 843.156 -164.185 828.133 -161.689Z" fill="url(#paint0_linear)"/>
<path d="M1357.84 169.417C1311.63 205.944 1271.79 252.227 1255.86 309.627C1269.29 308.266 1284.31 308.493 1296.6 309.173C1300.47 298.283 1305.71 288.074 1310.94 278.545C1333.71 239.068 1370.36 206.171 1408.37 180.307C1387.89 171.686 1357.84 169.417 1357.84 169.417C1357.61 169.417 1357.61 169.417 1357.84 169.417Z" fill="url(#paint1_linear)"/>
<path d="M1613.7 51.214C1539.94 67.5492 1467.33 97.0432 1403.14 137.427C1417.48 141.057 1433.87 148.091 1446.16 156.939L1448.21 155.804C1455.95 151.494 1463.46 147.41 1471.2 143.553C1525.15 115.874 1583.65 95.9088 1643.52 84.7919C1638.74 72.3136 1631.91 60.516 1625.31 48.7184C1621.44 49.6259 1617.57 50.5334 1613.7 51.214Z" fill="url(#paint2_linear)"/>
<path d="M493.056 262.437C495.56 275.369 505.12 298.737 505.348 298.964C561.118 275.822 616.661 251.547 670.838 224.548C684.951 217.515 699.292 210.255 713.178 202.768C707.487 191.424 698.154 180.988 690.187 170.778C626.222 205.037 559.98 234.531 493.056 262.437Z" fill="url(#paint3_linear)"/>
<path d="M455.951 277.864C402.001 299.871 347.825 321.198 294.103 343.659C282.038 348.65 269.974 353.868 258.137 358.859C262.462 370.884 267.47 382.682 272.478 394.479C337.353 366.573 402.912 340.936 468.243 314.165V313.938C465.511 308.72 457.772 289.889 455.951 277.864C455.951 277.637 455.951 277.637 455.951 277.864C455.951 277.637 455.951 277.637 455.951 277.864Z" fill="url(#paint4_linear)"/>
</g>
</g>
<defs>
<linearGradient id="paint0_linear" x1="361.257" y1="897.781" x2="1550.81" y2="-295.744" gradientUnits="userSpaceOnUse">
<stop stop-color="#9D85E8"/>
<stop offset="1" stop-color="#D8D2F9"/>
</linearGradient>
<linearGradient id="paint1_linear" x1="1386.29" y1="176.45" x2="1276.32" y2="309.533" gradientUnits="userSpaceOnUse">
<stop stop-color="#9D85E8"/>
<stop offset="1" stop-color="#C2B5F2"/>
</linearGradient>
<linearGradient id="paint2_linear" x1="1430.68" y1="148.091" x2="1629.69" y2="70.505" gradientUnits="userSpaceOnUse">
<stop stop-color="#9D85E8"/>
<stop offset="1" stop-color="#D1C9F7"/>
</linearGradient>
<linearGradient id="paint3_linear" x1="493.966" y1="284.217" x2="704.264" y2="182.709" gradientUnits="userSpaceOnUse">
<stop stop-color="#9D85E8"/>
<stop offset="1" stop-color="#B7A7EF"/>
</linearGradient>
<linearGradient id="paint4_linear" x1="272.796" y1="372.514" x2="467.804" y2="294.362" gradientUnits="userSpaceOnUse">
<stop stop-color="#A793EB"/>
<stop offset="1" stop-color="#9F88E9"/>
</linearGradient>
</defs>
</svg>
