<svg width="45" height="45" viewBox="0 0 45 45" fill="none" xmlns="http://www.w3.org/2000/svg">
<circle cx="22.5" cy="22.5" r="22.5" fill="#142DAD"/>
<path d="M30.9956 31.25C30.9956 31.1451 30.9956 31.072 30.9956 30.999C30.9956 26.6368 30.9956 22.2699 30.9956 17.9031C30.9956 16.2467 29.5807 14.7546 28.0057 14.75C23.9903 14.75 19.9749 14.75 15.9595 14.75C14.4192 14.75 12.9999 16.2558 12.9999 17.8894C12.9999 20.6363 12.9999 23.3787 12.9999 26.1257C12.9999 27.5265 13.9172 28.8316 15.2023 29.2194C15.4706 29.3016 15.7519 29.3472 16.0288 29.3472C19.7499 29.3563 23.4711 29.3518 27.1922 29.3563C27.3091 29.3563 27.4345 29.3883 27.5384 29.443C28.6201 30.0088 29.7019 30.5792 30.7836 31.1496C30.8442 31.1816 30.9047 31.2089 30.9956 31.25ZM29.611 28.9C29.0139 28.5852 28.4514 28.284 27.8802 27.992C27.7634 27.9327 27.6206 27.8962 27.4908 27.8962C23.6485 27.8916 19.8019 27.8916 15.9595 27.8916C14.9903 27.8916 14.3759 27.2436 14.3759 26.2261C14.3759 23.4563 14.3759 20.6911 14.3759 17.9213C14.3759 16.8353 14.973 16.2102 16.0028 16.2102C19.9922 16.2102 23.9773 16.2102 27.9668 16.2102C29.0269 16.2102 29.611 16.8308 29.611 17.9533C29.611 20.1435 29.611 22.3338 29.611 24.5241C29.611 25.966 29.611 27.4125 29.611 28.9Z" fill="white"/>
<path d="M27.5298 20.577C27.5298 20.0979 27.5298 19.6324 27.5298 19.1533C23.8519 19.1533 20.1697 19.1533 16.4745 19.1533C16.4745 19.6188 16.4745 20.0887 16.4745 20.577C20.1524 20.577 23.8303 20.577 27.5298 20.577Z" fill="white"/>
<path d="M27.5254 24.9531C27.5254 24.4694 27.5254 23.9994 27.5254 23.5203C23.8388 23.5203 20.1566 23.5203 16.4701 23.5203C16.4701 23.9994 16.4701 24.4694 16.4701 24.9531C20.148 24.9531 23.8259 24.9531 27.5254 24.9531Z" fill="white"/>
</svg>
