<svg width="13" height="16" viewBox="0 0 13 16" fill="none" xmlns="http://www.w3.org/2000/svg">
<path d="M11.1602 2.15274C9.65424 0.504499 7.81712 -0.203703 5.70819 0.0503609C4.55842 0.190096 3.50864 0.653762 2.58696 1.43183C0.959175 2.80377 0.0656113 4.67432 0 6.83703C0.00937305 7.54523 0.07186 8.07877 0.209331 8.62183C0.484274 9.7016 1.00292 10.7433 1.79338 11.8103C2.87753 13.2712 4.26786 14.5828 6.04874 15.8245C6.38617 16.0595 6.61425 16.0595 6.9548 15.8182C7.94209 15.1259 8.84503 14.3732 9.64174 13.5824C10.9227 12.3057 11.7913 11.1085 12.3755 9.80958C12.9817 8.46304 13.1473 7.05934 12.8692 5.63341C12.6005 4.27099 12.0287 3.09912 11.1602 2.15274ZM10.579 9.78417C9.93231 10.991 9.03249 12.112 7.74838 13.3188C7.49219 13.557 7.22349 13.792 6.96105 14.0143C6.8392 14.1191 6.71423 14.2271 6.59238 14.3319L6.51427 14.3986L6.43303 14.3351C4.58654 12.8996 3.31806 11.4737 2.43387 9.84769C2.00271 9.05374 1.75901 8.31695 1.68402 7.59287C1.53406 6.1066 1.8996 4.77594 2.77755 3.63901C3.56176 2.62275 4.57092 2.01618 5.78005 1.84151C7.41096 1.60332 8.81379 2.10192 9.9573 3.32778C10.7071 4.13126 11.1633 5.14751 11.3133 6.34478C11.457 7.47219 11.2164 8.59642 10.579 9.78417Z" fill="#142DAD"/>
<path d="M6.6423 4.09632C6.59543 4.09314 6.54857 4.09314 6.5017 4.09314C5.80497 4.09314 5.14573 4.37896 4.63022 4.90932C3.69291 5.87158 3.51482 7.47218 4.2178 8.63452C4.73332 9.48881 5.49566 9.95883 6.42047 10.0001C6.9891 9.99059 7.44838 9.86038 7.87329 9.59044C8.5544 9.15853 9.02618 8.42492 9.1699 7.58016C9.31674 6.70364 9.09804 5.80807 8.56377 5.12845C8.07325 4.50282 7.39214 4.1376 6.6423 4.09632ZM7.56711 7.15143C7.55148 7.55158 7.32028 7.90409 6.93911 8.08829C6.78914 8.16133 6.63917 8.19944 6.4892 8.19944C6.2705 8.19944 6.05804 8.12005 5.85496 7.96443C5.47067 7.66591 5.32382 7.09744 5.50503 6.61472C5.68 6.1447 6.09554 5.87158 6.58606 5.89699C7.14219 5.92875 7.56398 6.46546 7.56398 7.14825L7.56711 7.15143Z" fill="#142DAD"/>
</svg>
