<svg width="60" height="60" viewBox="0 0 60 60" fill="none" xmlns="http://www.w3.org/2000/svg">
<path d="M49.658 47.1496C49.6471 47.4244 49.6254 47.6553 49.6254 47.8971C49.6254 50.7884 49.6254 53.6796 49.6254 56.5709C49.6254 57.7472 49.386 58 48.2328 58C35.145 58 22.0572 58 8.96942 58C6.89148 58 5.32486 56.6698 5.04199 54.647C5.03112 54.5591 5.00936 54.4601 5.02024 54.3722C5.16167 52.3494 4.95496 50.3377 5.00936 48.3149C5.05287 46.3031 5.02024 44.2803 5.02024 42.2686C5.02024 40.2348 5.02024 38.201 5.02024 36.1673C5.02024 34.1555 5.02024 32.1327 5.02024 30.1209C5.02024 28.0872 5.02024 26.0534 5.02024 24.0196C5.02024 22.0079 5.02024 19.9851 5.02024 17.9733C5.02024 15.9395 5.02024 13.9058 5.02024 11.872C5.02024 9.86023 5.00936 7.83746 5.02024 5.82568C5.02024 3.65999 6.67389 2 8.86063 2C23.8306 2 38.8114 2 53.7813 2C54.6625 2 55.0106 2.39576 54.9998 3.28622C54.9889 6.72713 54.9998 10.179 54.9998 13.6199C54.9998 16.1154 54.9889 18.5999 54.9889 21.0954C54.9889 29.3184 54.9889 37.5414 54.9889 45.7754C54.9889 46.9077 54.7387 47.1606 53.6181 47.1606C52.3126 47.1606 51.007 47.1496 49.658 47.1496ZM47.7759 50.6894C47.7868 50.4476 47.8085 50.2497 47.8085 50.0628C47.7977 48.7436 47.765 47.4244 47.765 46.1052C47.765 35.4087 47.765 24.7122 47.765 14.0157C47.765 13.1912 48.1023 12.8394 48.9073 12.8394C50.1258 12.8284 51.3334 12.8174 52.5519 12.8394C53.0197 12.8504 53.172 12.7185 53.172 12.2238C53.1503 9.67334 53.1612 7.13388 53.1612 4.58343C53.1612 3.85787 53.1612 3.85787 52.454 3.85787C37.9301 3.85787 23.4171 3.85787 8.89327 3.85787C7.43544 3.85787 6.83708 4.4625 6.83708 5.93561C6.83708 20.8316 6.83708 35.7165 6.83708 50.6125C6.83708 50.7664 6.85884 50.9313 6.85884 51.0192C7.59863 50.9093 8.29491 50.7004 9.00206 50.7004C21.7091 50.6784 34.4161 50.6894 47.1231 50.6894C47.3298 50.6894 47.5257 50.6894 47.7759 50.6894ZM47.7977 52.6133C47.5148 52.6133 47.319 52.6133 47.1231 52.6133C34.4052 52.6133 21.6764 52.6133 8.95854 52.6133C8.74096 52.6133 8.52337 52.6133 8.30579 52.6243C7.69654 52.6682 7.05467 53.2289 6.91323 53.8335C6.57598 55.2407 7.34841 56.1421 8.90415 56.1421C19.9575 56.1421 31.0109 56.1421 42.0643 56.1421C43.805 56.1421 45.5456 56.1421 47.2863 56.1421C47.5148 56.1421 47.7868 56.1971 47.7868 55.8233C47.7977 54.79 47.7977 53.7456 47.7977 52.6133ZM49.7124 25.5477C49.7124 28.5599 49.7124 31.4841 49.7124 34.4303C50.8656 34.4303 51.9862 34.4303 53.1612 34.4303C53.1612 33.6278 53.1612 32.8583 53.1612 32.0997C53.1612 30.0879 53.1612 28.0762 53.1612 26.0644C53.1612 25.8005 53.1829 25.5477 52.7913 25.5477C51.7795 25.5477 50.7677 25.5477 49.7124 25.5477ZM53.1176 23.6129C53.1176 20.6227 53.1176 17.6875 53.1176 14.7413C51.9535 14.7413 50.8439 14.7413 49.7015 14.7413C49.7015 17.7095 49.7015 20.6447 49.7015 23.6129C50.833 23.6129 51.9535 23.6129 53.1176 23.6129ZM49.6907 45.2587C50.8656 45.2587 51.9862 45.2587 53.1176 45.2587C53.1176 42.2905 53.1176 39.3443 53.1176 36.4091C51.9535 36.4091 50.8221 36.4091 49.6907 36.4091C49.6907 39.3773 49.6907 42.3015 49.6907 45.2587Z" fill="#142DAD"/>
<path d="M27.3661 17.9293C26.8439 17.9953 26.3217 18.0173 25.8103 18.1272C24.1567 18.457 23.3734 19.4794 23.5257 21.1833C23.6019 22.0298 23.8194 22.8763 23.9282 23.7228C23.9609 23.9866 23.9174 24.3164 23.7868 24.5473C23.5148 25.031 23.5366 25.4817 23.8847 25.9325C24.2764 26.4492 24.6027 27.0098 24.9944 27.5155C26.0171 28.8457 26.0171 30.3738 25.7016 31.8908C25.5928 32.4185 25.2229 33.0012 24.7877 33.32C24.0261 33.8806 23.134 34.2764 22.2746 34.7051C21.5021 35.0899 20.6753 35.3867 19.9029 35.7935C18.8258 36.3651 18.1731 37.2666 18.086 38.5308C18.086 38.5858 18.0752 38.6407 18.0643 38.6957C17.9555 39.3223 17.5856 39.6302 17.0308 39.5642C16.5194 39.5092 16.2257 39.1135 16.2583 38.4978C16.3454 36.9038 17.0199 35.5626 18.3254 34.6941C19.3372 34.0126 20.4904 33.5398 21.5892 32.9902C22.1875 32.6934 22.8294 32.4625 23.3843 32.1107C23.6454 31.9458 23.8303 31.561 23.9174 31.2422C24.3308 29.6702 23.5475 28.4389 22.6445 27.3066C21.8612 26.3172 21.4804 25.3058 21.9591 24.0636C22.0352 23.8767 22.0026 23.6459 21.9917 23.437C21.9482 22.3486 21.7741 21.2493 21.872 20.172C22.0026 18.6329 22.8077 17.4346 24.2328 16.797C26.2346 15.8956 28.3017 15.8186 30.3361 16.731C32.1421 17.5446 33.056 19.0396 33.1321 21.0184C33.1648 21.81 33.0016 22.6125 32.9472 23.415C32.9363 23.6678 32.9254 23.9317 33.0124 24.1625C33.3932 25.2949 33.1104 26.2623 32.4576 27.2077C31.9028 28.0102 31.4023 28.8677 30.9454 29.7362C30.5864 30.4397 31.1086 31.9568 31.8266 32.3086C32.6861 32.7373 33.589 33.0781 34.4594 33.4629C35.6996 34.0016 36.8637 34.6612 37.7014 35.7825C38.3215 36.629 38.6697 37.5744 38.6914 38.6298C38.7023 39.1904 38.3759 39.5642 37.8755 39.5972C37.3424 39.6411 36.9072 39.3113 36.8746 38.7397C36.7984 37.1786 35.9499 36.2112 34.6226 35.5846C33.7414 35.1669 32.8166 34.8371 31.9354 34.4193C31.3479 34.1445 30.7713 33.8257 30.2491 33.4409C29.6507 33.0012 29.2482 32.4075 29.2156 31.605C29.2047 31.1873 29.1068 30.7695 29.0415 30.3518C28.9545 29.8131 29.0089 29.3184 29.3135 28.8347C29.6943 28.2191 29.9989 27.5485 30.3579 26.9109C30.532 26.6141 30.7496 26.3502 30.978 26.0974C31.3806 25.6576 31.4023 25.108 31.1303 24.5913C30.9889 24.3164 30.9889 23.9317 31.0215 23.6019C31.0868 22.8433 31.3044 22.0848 31.2935 21.3263C31.2609 18.7648 29.7487 18.0283 27.7469 18.0063C27.6163 18.0063 27.4966 18.0283 27.3661 18.0393C27.377 17.9843 27.3661 17.9623 27.3661 17.9293Z" fill="#54D8AF"/>
</svg>
