<svg xmlns="http://www.w3.org/2000/svg" xmlns:xlink="http://www.w3.org/1999/xlink" xmlns:svgjs="http://svgjs.com/svgjs" version="1.1" width="1584.296875" height="1013.1953125000001"><g transform="scale(5) translate(30, 30)"> <defs id="SvgjsDefs1041"></defs><g xmlns:name="main_text" id="SvgjsG1042" rel="mainfill" name="main_text" transform="translate(-1.921875,-105.64999999999998)" fill="#000000" style="fill: #000000"><path d="M25.69 220.38Q24.86 216.10 22.61 214.10Q20.37 212.09 16.75 212.09Q14.61 212.09 12.71 212.81Q10.82 213.53 9.38 215.16Q7.94 216.80 7.11 219.46Q6.28 222.12 6.28 226.04Q6.28 228.49 6.87 230.84Q7.46 233.20 8.72 235.03Q9.99 236.86 11.97 237.99Q13.96 239.13 16.75 239.13Q20.02 239.13 22.37 237.56Q24.73 235.99 26.56 233.02L27.43 233.68Q26.38 235.73 25.10 237.10Q23.81 238.47 22.33 239.32Q20.85 240.17 19.12 240.52Q17.40 240.87 15.44 240.87Q12.34 240.87 9.83 239.72Q7.33 238.56 5.56 236.55Q3.79 234.55 2.86 231.85Q1.92 229.14 1.92 226.04Q1.92 222.77 2.99 219.92Q4.06 217.06 5.89 214.92Q7.72 212.79 10.18 211.57Q12.65 210.35 15.44 210.35Q19.06 210.35 21.67 211.37Q24.29 212.40 25.47 213.83Q26.30 214.84 26.43 216.63Q26.56 218.41 26.56 220.38L25.69 220.38ZM35.72 221.25Q33.75 221.25 32.45 222.36Q31.14 223.47 31.14 225.61L30.27 225.61L30.27 222.99Q30.27 222.34 30.42 221.71Q30.57 221.07 30.92 220.59Q31.27 220.11 31.90 219.81Q32.53 219.50 33.54 219.50L49.02 219.50L49.02 221.25L41.82 221.25L41.82 240L37.90 240L37.90 221.25L35.72 221.25ZM57.39 237.38Q58.39 237.86 59.46 238.28Q60.53 238.69 61.53 238.69Q63.02 238.69 64.04 237.99Q65.07 237.30 65.72 236.10Q66.37 234.90 66.68 233.26Q66.98 231.63 66.98 229.75Q66.98 227.88 66.70 226.24Q66.42 224.61 65.78 223.41Q65.15 222.21 64.22 221.51Q63.28 220.81 61.97 220.81Q61.05 220.81 60.36 221.03Q59.66 221.25 59.11 221.62Q58.57 221.99 58.13 222.47Q57.70 222.95 57.39 223.43L57.39 237.38M53.47 224.74Q53.47 222.77 52.92 221.57Q52.38 220.38 50.41 220.38L49.54 220.38L49.54 219.50L53.47 219.50Q55.12 219.50 55.97 219.98Q56.82 220.46 57.17 221.47L57.39 221.47Q58.04 220.64 59.44 219.85Q60.84 219.07 63.28 219.07Q65.24 219.07 66.70 219.92Q68.16 220.77 69.14 222.21Q70.12 223.65 70.63 225.59Q71.13 227.53 71.13 229.75Q71.13 231.98 70.63 233.92Q70.12 235.86 69.10 237.30Q68.07 238.74 66.53 239.59Q64.98 240.44 62.84 240.44Q61.01 240.44 59.70 240.02Q58.39 239.61 57.39 239.13L57.39 248.29L53.47 248.29L53.47 224.74ZM90.14 229.75Q90.14 227.88 89.75 226.24Q89.36 224.61 88.64 223.41Q87.92 222.21 86.91 221.51Q85.91 220.81 84.69 220.81Q83.47 220.81 82.47 221.51Q81.46 222.21 80.74 223.41Q80.02 224.61 79.63 226.24Q79.24 227.88 79.24 229.75Q79.24 231.63 79.63 233.26Q80.02 234.90 80.74 236.10Q81.46 237.30 82.47 237.99Q83.47 238.69 84.69 238.69Q85.91 238.69 86.91 237.99Q87.92 237.30 88.64 236.10Q89.36 234.90 89.75 233.26Q90.14 231.63 90.14 229.75M75.10 229.75Q75.10 227.53 75.73 225.59Q76.36 223.65 77.60 222.21Q78.85 220.77 80.61 219.92Q82.38 219.07 84.69 219.07Q86.96 219.07 88.75 219.92Q90.53 220.77 91.78 222.21Q93.02 223.65 93.65 225.59Q94.28 227.53 94.28 229.75Q94.28 231.98 93.65 233.92Q93.02 235.86 91.78 237.30Q90.53 238.74 88.75 239.59Q86.96 240.44 84.69 240.44Q82.38 240.44 80.61 239.59Q78.85 238.74 77.60 237.30Q76.36 235.86 75.73 233.92Q75.10 231.98 75.10 229.75ZM113.08 223.43L103.92 240L100.00 240L100.00 224.74Q100.00 222.77 99.45 221.57Q98.91 220.38 96.94 220.38L96.29 220.38L96.29 219.50L100.00 219.50Q101.13 219.50 101.89 219.70Q102.66 219.90 103.11 220.48Q103.57 221.07 103.75 222.10Q103.92 223.12 103.92 224.74L103.92 236.08L113.08 219.50L117.00 219.50L117.00 240L113.08 240L113.08 223.43M108.50 214.88Q110.33 214.88 111.40 214.42Q112.47 213.97 113.30 213.14L114.17 213.79Q113.34 215.27 111.99 216.28Q110.64 217.28 108.50 217.28Q106.36 217.28 105.01 216.28Q103.66 215.27 102.83 213.79L103.70 213.14Q104.53 213.97 105.60 214.42Q106.67 214.88 108.50 214.88ZM149.01 240Q148.27 240.22 147.27 240.22Q146.53 240.22 145.55 240.04Q144.57 239.87 143.54 239.28Q142.52 238.69 141.53 237.56Q140.55 236.42 139.86 234.55L138.77 231.71L126.55 231.71L123.07 240L121.10 240L133.31 211.22L134.62 211.22L144.22 234.55Q144.74 235.77 145.20 236.62Q145.66 237.47 146.22 237.99Q146.79 238.52 147.44 238.78Q148.10 239.04 149.01 239.13L149.01 240M127.21 229.97L137.89 229.97L132.66 217.32L127.21 229.97ZM156.91 224.74Q156.91 229.66 156.34 232.72Q155.77 235.77 154.86 237.49Q153.94 239.22 152.76 239.83Q151.59 240.44 150.37 240.44Q150.02 240.44 149.30 240.31Q148.58 240.17 148.23 240.04L148.23 238.95Q149.28 238.95 150.30 238.41Q151.33 237.86 152.13 236.34Q152.94 234.81 153.42 232.02Q153.90 229.23 153.90 224.74Q153.90 223.78 153.79 222.97Q153.68 222.16 153.35 221.57Q153.03 220.99 152.42 220.68Q151.80 220.38 150.80 220.38L150.80 219.50L168.51 219.50L168.51 240L164.58 240L164.58 221.25L156.91 221.25L156.91 224.74ZM179.32 238.04Q179.80 238.21 180.65 238.34Q181.50 238.47 182.16 238.47Q184.64 238.47 186.02 237.43Q187.39 236.38 187.39 233.89Q187.39 231.41 186.02 230.36Q184.64 229.32 182.16 229.32Q181.50 229.32 180.65 229.45Q179.80 229.58 179.32 229.75L179.32 238.04M179.32 227.79L182.59 227.79Q184.47 227.79 186.10 228.07Q187.74 228.36 188.94 229.05Q190.14 229.75 190.84 230.93Q191.53 232.11 191.53 233.89Q191.53 235.68 190.84 236.86Q190.14 238.04 188.94 238.74Q187.74 239.43 186.10 239.72Q184.47 240 182.59 240L175.40 240L175.40 224.74Q175.40 222.77 174.85 221.57Q174.31 220.38 172.34 220.38L171.69 220.38L171.69 219.50L175.40 219.50Q176.53 219.50 177.29 219.70Q178.06 219.90 178.52 220.48Q178.97 221.07 179.15 222.10Q179.32 223.12 179.32 224.74L179.32 227.79ZM211.20 240L207.28 240L207.28 231.28L203.87 231.28L201.26 236.51Q200.25 238.47 199.03 239.45Q197.81 240.44 195.94 240.44Q195.28 240.44 194.65 240.31Q194.02 240.17 193.54 240L193.54 239.13Q194.28 239.04 194.89 238.71Q195.50 238.39 196.02 237.88Q196.55 237.38 196.94 236.79Q197.33 236.21 197.68 235.64L200.30 231.06Q199.30 230.89 198.40 230.45Q197.51 230.01 196.81 229.29Q196.11 228.57 195.70 227.59Q195.28 226.61 195.28 225.39Q195.28 223.69 195.98 222.56Q196.68 221.42 197.86 220.75Q199.03 220.07 200.63 219.79Q202.22 219.50 204.01 219.50L214.25 219.50L214.25 220.38Q212.29 220.38 211.75 221.57Q211.20 222.77 211.20 224.74L211.20 240M207.28 221.47Q206.80 221.29 205.95 221.16Q205.10 221.03 204.44 221.03Q202.13 221.03 200.78 222.05Q199.43 223.08 199.43 225.39Q199.43 227.70 200.78 228.73Q202.13 229.75 204.44 229.75Q205.10 229.75 205.95 229.62Q206.80 229.49 207.28 229.32L207.28 221.47ZM231.44 230.62L222.71 230.62L222.71 240L218.79 240L218.79 224.74Q218.79 222.77 218.24 221.57Q217.70 220.38 215.74 220.38L215.08 220.38L215.08 219.50L218.79 219.50Q219.92 219.50 220.69 219.70Q221.45 219.90 221.91 220.48Q222.36 221.07 222.54 222.10Q222.71 223.12 222.71 224.74L222.71 228.88L231.44 228.88L231.44 219.50L235.36 219.50L235.36 234.77Q235.36 236.73 235.91 237.93Q236.45 239.13 238.41 239.13L239.07 239.13L239.07 240L235.36 240Q234.23 240 233.46 239.80Q232.70 239.61 232.24 239.02Q231.78 238.43 231.61 237.43Q231.44 236.42 231.44 234.77L231.44 230.62ZM250.71 219.07Q253.02 219.07 254.61 219.42Q256.21 219.77 257.03 220.59Q257.43 220.99 257.67 221.47Q257.91 221.95 257.99 222.60Q258.08 223.25 258.10 224.15Q258.12 225.04 258.12 226.26L257.25 226.26Q257.08 223.47 255.49 222.14Q253.89 220.81 251.58 220.81Q249.93 220.81 248.75 221.51Q247.57 222.21 246.79 223.41Q246.00 224.61 245.63 226.24Q245.26 227.88 245.26 229.75Q245.26 231.63 245.63 233.26Q246.00 234.90 246.79 236.10Q247.57 237.30 248.75 237.99Q249.93 238.69 251.58 238.69Q253.89 238.69 255.33 237.78Q256.77 236.86 257.91 235.20L258.78 235.86Q257.30 238.34 255.31 239.39Q253.33 240.44 250.71 240.44Q248.27 240.44 246.46 239.59Q244.65 238.74 243.47 237.30Q242.29 235.86 241.71 233.92Q241.12 231.98 241.12 229.75Q241.12 227.53 241.71 225.59Q242.29 223.65 243.47 222.21Q244.65 220.77 246.46 219.92Q248.27 219.07 250.71 219.07Z" fill="#000000" style="fill: #000000"></path></g><g xmlns:name="symbol_mainfill" id="SvgjsG1043" rel="mainfill" name="symbol" transform="translate(77.221875,-6.352734374999994) scale(0.1)" fill="#263248" style="fill: #263248"><title>icon</title><path fill="#263248" d="M547.577206 709.943904c-7.532049-56.173084-26.679456-74.354843-85.528762-82.49387-14.48471-64.339701-31.259383-79.624518-90.881207-82.162792-1.710575-8.608056-2.896942-17.519601-5.297265-26.100067C350.392025 463.51071 284.176209 446.763627 241.135929 487.182864 221.243594 505.888832 200.882231 524.208541 179.58281 543.521487 119.243648 493.225057 64.477651 433.630823 52.420854 346.888105c-13.794962-97.971817 29.245319-172.46461 104.06919-229.437802C231.755355 60.090853 315.076923 60.366752 397.570793 100.206601c33.494167 16.167695 62.380816 41.826324 95.902574 64.919089l-224.361256 232.003665c99.047824 116.650195 210.731833 122.582029 308.565701 35.425461 27.010535-24.086003 52.420854-49.827401 80.010778-76.120598 43.867978 47.095999 86.521999 92.950451 129.28638 138.694544q45.771683 48.889344 91.791674 97.502789c15.809026 16.774673 18.09899 37.908554 5.959424 54.545278-8.801186 12.084386-26.679456 20.609673-41.936684 23.727334-9.104675 1.876115-22.761687-7.807948-31.259383-15.671077-43.702438-40.336468-86.38405-81.776532-131.465984-124.789222l-22.540967 25.07924c43.17823 42.736791 85.252863 84.866604 127.934474 126.361848 14.181221 13.794962 22.734097 28.69352 16.029745 48.530675-6.842301 20.306183-20.885572 35.8669-42.405712 36.446289a59.263155 59.263155 0 0 1-38.625892-14.53989c-44.943985-42.598841-88.039445-87.184157-134.666415-133.976667l-21.57532 28.7487 96.78545 101.503328 29.052189 30.542044c23.313485 24.610212 22.623737 52.420854-1.820934 73.168477s-48.641035 16.416004-70.823333-12.498235c36.611828-73.527145 13.877731-116.484656-69.830096-129.865769z" style="fill: #263248"></path><path fill="#263248" d="M314.663074 397.874283c31.783592-33.107908 63.236104-66.740024 95.654264-99.323724 59.345925-59.814954 117.808972-120.595554 179.334501-178.175724a209.876546 209.876546 0 0 1 287.707719 0.413849C927.352499 168.298532 965.150694 224.085356 972.682743 295.212178c6.621582 62.463586-6.842301 120.016166-47.178769 169.374539-18.678378 22.872046-39.122511 44.281827-60.063263 67.788441l-210.566294-222.73345-87.984265 82.245561c-5.517985 5.076546-10.81525 10.208272-16.305644 15.202048-75.872289 69.499017-162.145979 66.795204-235.921434-9.215034zM340.763142 534.747892c-9.325394 16.553954-14.015681 30.348916-23.120356 39.895029-32.25262 34.128735-65.967506 66.905564-99.323724 100.013471-16.553954 16.553954-34.790893 17.078162-53.331321 3.448741-17.326472-12.746545-21.051111-32.44575-8.828776-52.558804a149.509794 149.509794 0 0 1 22.071939-26.293197c28.91424-29.383268 57.000781-59.759774 88.039445-86.687539 9.684063-8.276977 29.272909-12.360286 41.384885-8.773595s21.299421 19.147407 33.107908 30.955894zM277.582217 771.276303c-10.484171-7.559639-26.293197-13.574242-32.19744-24.830931-5.324855-10.125502-5.131726-30.790354 1.820935-38.625892q55.510926-61.580709 116.263936-118.333181c16.553954-15.450357 36.556648-7.25615 50.986178 7.532049 14.843379 15.202048 15.091688 34.514994 1.158777 49.248013-36.887727 39.039741-75.40326 76.534447-113.836023 114.056743-4.883416 4.883416-13.132803 6.152553-24.196363 10.953199zM515.655665 702.218726c-7.559639 12.939674-11.284279 23.341075-18.292119 30.542045q-50.820639 52.558804-103.213903 103.544981c-17.7955 17.436831-36.777368 17.243702-55.014307 1.103597-16.195285-14.31917-19.312946-35.563411-3.117661-52.862293 36.08762-38.625892 73.113297-76.479267 112.208217-111.932318 8.276977-7.394099 29.052189-7.807948 40.308878-2.758992s17.85068 20.582083 27.120895 32.36298zM602.922592 785.181625c-8.111437 13.794962-12.222336 24.830931-19.809565 32.776828-33.107908 34.487404-67.181463 68.25747-101.392968 101.751637-18.374889 18.01622-38.625892 17.657551-57.083551 0.524209-14.981328-13.794962-16.553954-36.335929-0.496618-53.165782 35.8669-37.632655 72.175239-75.044591 110.690771-109.890664 8.276977-7.476869 28.69352-8.470106 39.922619-3.80741s18.430069 20.168234 28.169312 31.811182zM581.485222 869.35848c31.397333 25.32755 36.115209 52.172545 15.064098 74.741102-22.513377 24.113593-49.441142 21.933989-77.500095-8.056257z" style="fill: #263248"></path></g> </g></svg>
